<?xml version="1.0" encoding="utf-8"?><svg xmlns="http://www.w3.org/2000/svg" xmlns:xlink="http://www.w3.org/1999/xlink"><symbol viewBox="0 0 20 13" id="accordion-arrow" xmlns="http://www.w3.org/2000/svg"><path d="M2 2l8 8 8-8"/></symbol><symbol viewBox="0 0 12 13" id="actions-download" xmlns="http://www.w3.org/2000/svg"><path d="M10 9.189c-.507 0-.96.196-1.307.502L3.94 6.983c.033-.15.06-.3.06-.457 0-.157-.027-.307-.06-.457l4.7-2.682c.36.326.833.529 1.36.529 1.107 0 2-.875 2-1.958C12 .874 11.107 0 10 0S8 .874 8 1.958c0 .156.027.307.06.457l-4.7 2.682A2.015 2.015 0 002 4.568c-1.107 0-2 .875-2 1.958s.893 1.958 2 1.958c.527 0 1-.202 1.36-.529l4.747 2.715c-.034.137-.054.28-.054.424C8.053 12.145 8.927 13 10 13s1.947-.855 1.947-1.906c0-1.05-.874-1.905-1.947-1.905zm0-7.884c.367 0 .667.294.667.653 0 .359-.3.652-.667.652a.662.662 0 01-.667-.652c0-.36.3-.653.667-.653zM2 7.18a.662.662 0 01-.667-.653c0-.359.3-.653.667-.653.367 0 .667.294.667.653 0 .359-.3.653-.667.653zm8 4.581a.662.662 0 01-.667-.653c0-.358.3-.652.667-.652.367 0 .667.293.667.652 0 .36-.3.653-.667.653z"/></symbol><symbol viewBox="0 0 13 12" id="actions-like" xmlns="http://www.w3.org/2000/svg"><path d="M9.425 0C8.294 0 7.208.53 6.5 1.367A3.883 3.883 0 003.575 0C1.573 0 0 1.583 0 3.597c0 2.472 2.21 4.486 5.558 7.546L6.5 12l.942-.863C10.79 8.083 13 6.069 13 3.597 13 1.583 11.427 0 9.425 0zm-2.86 10.169l-.065.065-.065-.065C3.341 7.35 1.3 5.487 1.3 3.597c0-1.308.975-2.29 2.275-2.29 1.001 0 1.976.648 2.32 1.544h1.216c.338-.896 1.313-1.543 2.314-1.543 1.3 0 2.275.98 2.275 2.289 0 1.89-2.041 3.753-5.135 6.572z"/></symbol><symbol viewBox="0 0 10 13" id="actions-play" xmlns="http://www.w3.org/2000/svg"><path fill-rule="evenodd" clip-rule="evenodd" d="M1.3 11.331L8.296 6.5 1.3 1.669v9.662zm-.634-10.1l.004.003-.004-.003zm.744 11.604L9.643 7.15a.77.77 0 000-1.3L1.41.165C.83-.24 0 .15 0 .815v11.37c0 .666.829 1.056 1.41.65z"/></symbol><symbol viewBox="0 0 18 18" id="archive" xmlns="http://www.w3.org/2000/svg"><g clip-path="url(#ea)" stroke-width="1.5" stroke-linecap="round" stroke-linejoin="round"><path d="M9 1.5L1.5 5.25 9 9l7.5-3.75L9 1.5zM1.5 12.75L9 16.5l7.5-3.75M1.5 9L9 12.75 16.5 9"/></g><defs><clipPath id="ea"><path d="M0 0h18v18H0z"/></clipPath></defs></symbol><symbol viewBox="0 0 24 24" id="fb" xmlns="http://www.w3.org/2000/svg"><g clip-path="url(#fa)"><path d="M15.78 22v-7.74h2.592l.388-3.009h-2.98v-1.92c0-.871.242-1.465 1.491-1.465h1.593V5.174a21.323 21.323 0 00-2.322-.118c-2.296 0-3.869 1.402-3.869 3.977v2.218h-2.597v3.009h2.597V22H3.111A1.111 1.111 0 012 20.889V3.11A1.111 1.111 0 013.111 2H20.89A1.111 1.111 0 0122 3.111V20.89A1.111 1.111 0 0120.889 22H15.78z"/></g><defs><clipPath id="fa"><path d="M0 0h24v24H0z"/></clipPath></defs></symbol><symbol viewBox="0 0 24 24" id="in" xmlns="http://www.w3.org/2000/svg"><g clip-path="url(#ga)"><path d="M12 2c2.717 0 3.056.01 4.122.06 1.065.05 1.79.217 2.428.465.66.254 1.216.598 1.772 1.153.509.5.902 1.105 1.153 1.772.247.637.415 1.363.465 2.428.047 1.066.06 1.405.06 4.122 0 2.717-.01 3.056-.06 4.122-.05 1.065-.218 1.79-.465 2.428a4.883 4.883 0 01-1.153 1.772c-.5.508-1.105.902-1.772 1.153-.637.247-1.363.415-2.428.465-1.066.047-1.405.06-4.122.06-2.717 0-3.056-.01-4.122-.06-1.065-.05-1.79-.218-2.428-.465a4.89 4.89 0 01-1.772-1.153 4.904 4.904 0 01-1.153-1.772c-.248-.637-.415-1.363-.465-2.428C2.013 15.056 2 14.717 2 12c0-2.717.01-3.056.06-4.122.05-1.066.217-1.79.465-2.428a4.88 4.88 0 011.153-1.772A4.897 4.897 0 015.45 2.525c.638-.248 1.362-.415 2.428-.465C8.944 2.013 9.283 2 12 2zm0 5a5 5 0 100 10 5 5 0 000-10zm6.5-.25a1.25 1.25 0 10-2.5 0 1.25 1.25 0 002.5 0zM12 9a3 3 0 110 6 3 3 0 010-6z"/></g><defs><clipPath id="ga"><path d="M0 0h24v24H0z"/></clipPath></defs></symbol><symbol viewBox="0 0 28 12" id="left-arrow" xmlns="http://www.w3.org/2000/svg"><path d="M3.646 6.354a.5.5 0 010-.708l3.182-3.182a.5.5 0 11.708.708L4.707 6l2.829 2.828a.5.5 0 11-.708.708L3.646 6.354zM24 6.5H4v-1h20v1z"/></symbol><symbol viewBox="0 0 24 24" id="play" xmlns="http://www.w3.org/2000/svg"><g clip-path="url(#ia)"><path d="M12 2C6.475 2 2 6.475 2 12s4.475 10 10 10 10-4.475 10-10S17.525 2 12 2zm-2 14.5v-9l6 4.5-6 4.5z"/></g><defs><clipPath id="ia"><path d="M0 0h24v24H0z"/></clipPath></defs></symbol><symbol viewBox="0 0 28 12" id="right-arrow" xmlns="http://www.w3.org/2000/svg"><path d="M24.354 6.354a.5.5 0 000-.708l-3.182-3.182a.5.5 0 10-.707.708L23.293 6l-2.828 2.828a.5.5 0 10.707.708l3.182-3.182zM4 6.5h20v-1H4v1z"/></symbol><symbol viewBox="0 0 24 24" id="search" xmlns="http://www.w3.org/2000/svg"><path d="M11 19a8 8 0 100-16 8 8 0 000 16zm10 2l-4.35-4.35"/></symbol><symbol viewBox="0 0 28 12" id="show-card-arrow" xmlns="http://www.w3.org/2000/svg"><path d="M24.354 6.354a.5.5 0 000-.708l-3.182-3.182a.5.5 0 10-.707.708L23.293 6l-2.828 2.828a.5.5 0 10.707.708l3.182-3.182zM4 6.5h20v-1H4v1z"/></symbol><symbol viewBox="0 0 22 18" id="tw" xmlns="http://www.w3.org/2000/svg"><path d="M21.162 2.656a8.385 8.385 0 01-2.402.658A4.196 4.196 0 0020.6 1c-.82.488-1.719.83-2.656 1.015a4.182 4.182 0 00-7.126 3.814 11.874 11.874 0 01-8.62-4.37 4.168 4.168 0 00-.566 2.103c0 1.45.738 2.73 1.86 3.48a4.168 4.168 0 01-1.894-.522v.052a4.185 4.185 0 003.355 4.1 4.208 4.208 0 01-1.89.073A4.185 4.185 0 006.97 13.65a8.393 8.393 0 01-6.19 1.732 11.83 11.83 0 006.409 1.88c7.693 0 11.9-6.373 11.9-11.9 0-.18-.005-.362-.013-.54a8.497 8.497 0 002.087-2.165v-.001z"/></symbol><symbol viewBox="0 0 21 15" id="yandex" xmlns="http://www.w3.org/2000/svg"><path d="M17.439 1.544L13.729.177 8.396 7.864l.53-3.489-2.905-1.693L.674 9.114a10.12 10.12 0 001.41 3.51l3.19-3.853L4.1 13.296l3.637 1.331 5.404-7.78-1.184 4.449 2.946 1.722 5.655-5.7.002-.193c0-1.342-.258-2.624-.727-3.796l-3.285 3.325.89-5.11z"/></symbol><symbol viewBox="0 0 24 24" id="yt" xmlns="http://www.w3.org/2000/svg"><g clip-path="url(#oa)"><path d="M21.543 6.498C22 8.28 22 12 22 12s0 3.72-.457 5.502c-.254.985-.997 1.76-1.938 2.022C17.896 20 12 20 12 20s-5.893 0-7.605-.476c-.945-.266-1.687-1.04-1.938-2.022C2 15.72 2 12 2 12s0-3.72.457-5.502c.254-.985.997-1.76 1.938-2.022C6.107 4 12 4 12 4s5.896 0 7.605.476c.945.266 1.687 1.04 1.938 2.022zM10 15.5l6-3.5-6-3.5v7z"/></g><defs><clipPath id="oa"><path d="M0 0h24v24H0z"/></clipPath></defs></symbol></svg>